<svg width="19" height="13" viewBox="0 0 19 13" fill="none" xmlns="http://www.w3.org/2000/svg">
<path d="M15.0417 3.33335L11.875 6.50002H14.25C14.25 9.12044 12.1204 11.25 9.49999 11.25C8.70041 11.25 7.94041 11.0521 7.28332 10.6959L6.12749 11.8517C7.10124 12.4692 8.25707 12.8334 9.49999 12.8334C12.9992 12.8334 15.8333 9.99919 15.8333 6.50002H18.2083L15.0417 3.33335ZM4.74999 6.50002C4.74999 3.8796 6.87957 1.75002 9.49999 1.75002C10.2996 1.75002 11.0596 1.94794 11.7167 2.30419L12.8725 1.14835C11.8987 0.530854 10.7429 0.166687 9.49999 0.166687C6.00082 0.166687 3.16666 3.00085 3.16666 6.50002H0.791656L3.95832 9.66669L7.12499 6.50002H4.74999Z" fill="black"/>
</svg>
